PathFileType	4	(X/Y/Z)	C:\Users\86182\Documents\cortex\Trimmed_M4_H3.trc
DataRate	CameraRate	NumFrames	NumMarkers	Units	OrigDataRate	OrigDataStartFrame	OrigNumFrames
100.00	100.00	       56	2	mm	100.00	181	       901
Frame#	Time	gripper			box			
		X1	Y1	Z1	X2	Y2	Z2	

181	1.800	277.97638	149.95380	218.05954	280.58817	146.71321	82.79994	
182	1.810	277.73477	149.99234	218.55420	280.53796	146.70284	83.21042	
183	1.820	277.51868	150.02563	219.04518	280.48807	146.68585	83.62613	
184	1.830	277.37378	150.04399	219.51601	280.43680	146.66273	84.04791	
185	1.840	277.30829	150.04707	219.96375	280.38434	146.63568	84.47674	
186	1.850	277.29999	150.04185	220.39705	280.33585	146.60793	84.91345	
187	1.860	277.32986	150.03360	220.82341	280.29852	146.58231	85.35818	
188	1.870	277.40353	150.02061	221.24057	280.27457	146.56055	85.80934	
189	1.880	277.52966	150.00008	221.64339	280.26013	146.54359	86.26254	
190	1.890	277.69363	149.97458	222.03346	280.25119	146.53200	86.71190	
191	1.900	277.87000	149.94945	222.41629	280.24780	146.52551	87.15367	
192	1.910	278.03668	149.92892	222.79842	280.25177	146.52284	87.58829	
193	1.920	278.16000	149.91858	223.19240	280.26114	146.52248	88.01845	
194	1.930	278.19794	149.92491	223.61334	280.26941	146.52332	88.44554	
195	1.940	278.14017	149.94832	224.06320	280.27097	146.52431	88.86834	
196	1.950	278.03043	149.97931	224.52371	280.26547	146.52463	89.28496	
197	1.960	277.93991	150.00410	224.96866	280.25687	146.52496	89.69627	
198	1.970	277.91949	150.01341	225.38284	280.24893	146.52721	90.10695	
199	1.980	277.97748	150.00569	225.76865	280.24304	146.53242	90.52214	
200	1.990	278.09732	149.98360	226.13605	280.23871	146.53960	90.94254	
201	2.000	278.25137	149.95319	226.49669	280.23615	146.54651	91.36418	
202	2.010	278.38632	149.92787	226.87148	280.23666	146.55170	91.78425	
203	2.020	278.43112	149.92503	227.28802	280.24042	146.55559	92.20520	
204	2.030	278.34775	149.95322	227.76012	280.24539	146.55943	92.63185	
205	2.040	278.16318	150.00563	228.27533	280.24985	146.56392	93.06646	
206	2.050	277.93961	150.06776	228.80734	280.25375	146.56905	93.50732	
207	2.060	277.71811	150.13017	229.33725	280.25616	146.57484	93.95102	
208	2.070	277.49942	150.19255	229.86107	280.25336	146.58180	94.39464	
209	2.080	277.27554	150.25647	230.37921	280.24124	146.59067	94.83611	
210	2.090	277.05814	150.31883	230.88632	280.21994	146.60138	95.27339	
211	2.100	276.86774	150.37479	231.37465	280.19293	146.61292	95.70400	
212	2.110	276.71542	150.42184	231.84071	280.16159	146.62456	96.12575	
213	2.120	276.60245	150.45963	232.28592	280.12411	146.63647	96.53818	
214	2.130	276.52524	150.48882	232.71429	280.08054	146.64915	96.94339	
215	2.140	276.47821	150.51082	233.13055	280.03525	146.66306	97.34520	
216	2.150	276.45621	150.52711	233.53931	279.99460	146.67853	97.74770	
217	2.160	276.45496	150.53876	233.94496	279.96295	146.69531	98.15419	
218	2.170	276.46985	150.54681	234.35141	279.94180	146.71199	98.56622	
219	2.180	276.49506	150.55254	234.76193	279.93149	146.72720	98.98405	
220	2.190	276.52481	150.55708	235.17947	279.93280	146.74095	99.40826	
221	2.200	276.55533	150.56125	235.60606	279.94583	146.75443	99.84041	
222	2.210	276.58533	150.56609	236.04190	279.96790	146.76942	100.28250	
223	2.220	276.61392	150.57304	236.48566	279.99353	146.78812	100.73557	
224	2.230	276.63904	150.58376	236.93555	280.01794	146.81197	101.19695	
225	2.240	276.65790	150.59978	237.38940	280.03986	146.84065	101.66035	
226	2.250	276.66919	150.62181	237.84470	280.06015	146.87267	102.12071	
227	2.260	276.67307	150.64890	238.29956	280.07800	146.90654	102.57742	
228	2.270	276.67029	150.67876	238.75294	280.08994	146.94092	103.03149	
229	2.280	276.66248	150.70879	239.20338	280.09253	146.97374	103.48135	
230	2.290	276.65225	150.73689	239.64908	280.08478	147.00327	103.92409	
231	2.300	276.64087	150.76189	240.08853	280.06610	147.02969	104.35992	
232	2.310	276.62756	150.78329	240.52069	280.03473	147.05464	104.79233	
233	2.320	276.61148	150.80087	240.94498	279.99033	147.07884	105.22391	
234	2.330	276.59268	150.81447	241.36285	279.93701	147.10143	105.65375	
235	2.340	276.57068	150.82393	241.77774	279.88306	147.12067	106.07890	
236	2.350	276.54535	150.82909	242.19295	279.83652	147.13492	106.49821	
